<?xml version="1.0" encoding="UTF-8"?>
<svg xmlns="http://www.w3.org/2000/svg" xmlns:xlink="http://www.w3.org/1999/xlink" width="24px" height="24px" viewBox="0 0 24 24" version="1.1">
<g id="surface1">
<path style=" stroke:none;fill-rule:nonzero;fill:rgb(39.607843%,38.823529%,100%);fill-opacity:1;" d="M 12 2 C 6.476562 2 2 6.476562 2 12 C 2 17.523438 6.476562 22 12 22 C 17.523438 22 22 17.523438 22 12 C 22 6.476562 17.523438 2 12 2 Z M 12 20 C 7.582031 20 4 16.417969 4 12 C 4 7.582031 7.582031 4 12 4 C 16.417969 4 20 7.582031 20 12 C 20 16.417969 16.417969 20 12 20 Z M 16 11 L 13 11 L 13 8 C 13 7.449219 12.550781 7 12 7 C 11.449219 7 11 7.449219 11 8 L 11 11 L 8 11 C 7.449219 11 7 11.449219 7 12 C 7 12.550781 7.449219 13 8 13 L 11 13 L 11 16 C 11 16.550781 11.449219 17 12 17 C 12.550781 17 13 16.550781 13 16 L 13 13 L 16 13 C 16.550781 13 17 12.550781 17 12 C 17 11.449219 16.550781 11 16 11 Z M 16 11 "/>
</g>
</svg>
