<?xml version="1.0" encoding="UTF-8"?>
<svg xmlns="http://www.w3.org/2000/svg" xmlns:xlink="http://www.w3.org/1999/xlink" width="32px" height="32px" viewBox="0 0 32 32" version="1.1">
<g id="surface1">
<path style=" stroke:none;fill-rule:nonzero;fill:rgb(39.607843%,38.823529%,100%);fill-opacity:1;" d="M 29.957031 25.09375 L 28.625 19.949219 L 24.425781 4.492188 C 24.234375 3.785156 23.511719 3.359375 22.796875 3.546875 L 17.640625 4.878906 C 17.390625 4.605469 17.039062 4.445312 16.667969 4.441406 L 3.332031 4.441406 C 2.597656 4.441406 2 5.039062 2 5.773438 L 2 27.109375 C 2 27.84375 2.597656 28.441406 3.332031 28.441406 L 16.667969 28.441406 C 17.402344 28.441406 18 27.84375 18 27.109375 L 18 16.441406 L 20.933594 27.398438 C 21.09375 28 21.644531 28.40625 22.265625 28.386719 C 22.382812 28.398438 22.496094 28.398438 22.613281 28.386719 L 29.050781 26.667969 C 29.394531 26.578125 29.691406 26.351562 29.867188 26.042969 C 30.007812 25.746094 30.042969 25.410156 29.957031 25.09375 Z M 8.625 25.828125 L 4.625 25.828125 L 4.625 23.160156 L 8.625 23.160156 Z M 8.625 20.492188 L 4.625 20.492188 L 4.625 12.492188 L 8.625 12.492188 Z M 8.625 9.828125 L 4.625 9.828125 L 4.625 7.160156 L 8.625 7.160156 Z M 15.292969 25.828125 L 11.292969 25.828125 L 11.292969 23.160156 L 15.292969 23.160156 Z M 15.292969 20.492188 L 11.292969 20.492188 L 11.292969 12.492188 L 15.292969 12.492188 Z M 15.292969 9.828125 L 11.292969 9.828125 L 11.292969 7.160156 L 15.292969 7.160156 Z M 18.292969 7.507812 L 22.160156 6.464844 L 22.855469 9.042969 L 18.984375 10.078125 Z M 21.746094 20.386719 L 19.679688 12.652344 L 23.546875 11.613281 L 25.613281 19.347656 Z M 23.078125 25.535156 L 22.386719 22.957031 L 26.253906 21.921875 L 26.949219 24.492188 Z M 23.078125 25.535156 "/>
</g>
</svg>
