<?xml version="1.0" encoding="UTF-8"?>
<svg xmlns="http://www.w3.org/2000/svg" xmlns:xlink="http://www.w3.org/1999/xlink" width="32px" height="32px" viewBox="0 0 32 32" version="1.1">
<g id="surface1">
<path style=" stroke:none;fill-rule:nonzero;fill:rgb(39.607843%,38.823529%,100%);fill-opacity:1;" d="M 20 8 L 12 8 C 11.265625 8 10.667969 8.597656 10.667969 9.332031 L 10.667969 14.667969 C 10.667969 15.402344 11.265625 16 12 16 L 20 16 C 20.734375 16 21.332031 15.402344 21.332031 14.667969 L 21.332031 9.332031 C 21.332031 8.597656 20.734375 8 20 8 Z M 18.667969 13.332031 L 13.332031 13.332031 L 13.332031 10.667969 L 18.667969 10.667969 Z M 22.667969 2.667969 L 6.667969 2.667969 C 5.929688 2.667969 5.332031 3.265625 5.332031 4 L 5.332031 28 C 5.332031 28.734375 5.929688 29.332031 6.667969 29.332031 L 22.667969 29.332031 C 24.875 29.332031 26.667969 27.542969 26.667969 25.332031 L 26.667969 6.667969 C 26.667969 4.457031 24.875 2.667969 22.667969 2.667969 Z M 24 25.332031 C 24 26.070312 23.402344 26.667969 22.667969 26.667969 L 8 26.667969 L 8 5.332031 L 22.667969 5.332031 C 23.402344 5.332031 24 5.929688 24 6.667969 Z M 24 25.332031 "/>
</g>
</svg>
