<?xml version="1.0" encoding="UTF-8"?>
<svg xmlns="http://www.w3.org/2000/svg" xmlns:xlink="http://www.w3.org/1999/xlink" width="32px" height="32px" viewBox="0 0 32 32" version="1.1">
<g id="surface1">
<path style=" stroke:none;fill-rule:nonzero;fill:rgb(39.607843%,38.823529%,100%);fill-opacity:1;" d="M 13.332031 10.667969 L 21.332031 10.667969 C 22.070312 10.667969 22.667969 10.070312 22.667969 9.332031 C 22.667969 8.597656 22.070312 8 21.332031 8 L 13.332031 8 C 12.597656 8 12 8.597656 12 9.332031 C 12 10.070312 12.597656 10.667969 13.332031 10.667969 Z M 10.667969 16 L 21.332031 16 C 22.070312 16 22.667969 15.402344 22.667969 14.667969 C 22.667969 13.929688 22.070312 13.332031 21.332031 13.332031 L 10.667969 13.332031 C 9.929688 13.332031 9.332031 13.929688 9.332031 14.667969 C 9.332031 15.402344 9.929688 16 10.667969 16 Z M 10.667969 21.332031 L 21.332031 21.332031 C 22.070312 21.332031 22.667969 20.738281 22.667969 20 C 22.667969 19.261719 22.070312 18.667969 21.332031 18.667969 L 10.667969 18.667969 C 9.929688 18.667969 9.332031 19.261719 9.332031 20 C 9.332031 20.738281 9.929688 21.332031 10.667969 21.332031 Z M 26.667969 2.667969 L 5.332031 2.667969 C 4.597656 2.667969 4 3.261719 4 4 L 4 28 C 4 28.503906 4.285156 28.964844 4.738281 29.191406 C 5.1875 29.417969 5.730469 29.371094 6.132812 29.066406 L 8.894531 27 L 11.640625 29.066406 C 12.113281 29.421875 12.765625 29.421875 13.238281 29.066406 L 16 27 L 18.761719 29.066406 C 19.234375 29.421875 19.886719 29.421875 20.359375 29.066406 L 23.105469 27 L 25.867188 29.066406 C 26.273438 29.371094 26.816406 29.414062 27.265625 29.1875 C 27.714844 28.960938 28 28.503906 28 28 L 28 4 C 28 3.261719 27.402344 2.667969 26.667969 2.667969 Z M 25.332031 25.332031 L 23.90625 24.265625 C 23.433594 23.910156 22.78125 23.910156 22.308594 24.265625 L 19.558594 26.332031 L 16.800781 24.265625 C 16.324219 23.910156 15.675781 23.910156 15.199219 24.265625 L 12.441406 26.332031 L 9.691406 24.265625 C 9.21875 23.910156 8.566406 23.910156 8.09375 24.265625 L 6.667969 25.332031 L 6.667969 5.332031 L 25.332031 5.332031 Z M 25.332031 25.332031 "/>
</g>
</svg>
