<?xml version="1.0" encoding="UTF-8"?>
<svg xmlns="http://www.w3.org/2000/svg" xmlns:xlink="http://www.w3.org/1999/xlink" width="32px" height="32px" viewBox="0 0 32 32" version="1.1">
<g id="surface1">
<path style=" stroke:none;fill-rule:nonzero;fill:rgb(39.607843%,38.823529%,100%);fill-opacity:1;" d="M 18.667969 10.667969 L 20 10.667969 C 20.734375 10.667969 21.332031 10.070312 21.332031 9.332031 C 21.332031 8.597656 20.734375 8 20 8 L 18.667969 8 C 17.929688 8 17.332031 8.597656 17.332031 9.332031 C 17.332031 10.070312 17.929688 10.667969 18.667969 10.667969 Z M 18.667969 16 L 20 16 C 20.734375 16 21.332031 15.402344 21.332031 14.667969 C 21.332031 13.929688 20.734375 13.332031 20 13.332031 L 18.667969 13.332031 C 17.929688 13.332031 17.332031 13.929688 17.332031 14.667969 C 17.332031 15.402344 17.929688 16 18.667969 16 Z M 12 10.667969 L 13.332031 10.667969 C 14.070312 10.667969 14.667969 10.070312 14.667969 9.332031 C 14.667969 8.597656 14.070312 8 13.332031 8 L 12 8 C 11.265625 8 10.667969 8.597656 10.667969 9.332031 C 10.667969 10.070312 11.265625 10.667969 12 10.667969 Z M 12 16 L 13.332031 16 C 14.070312 16 14.667969 15.402344 14.667969 14.667969 C 14.667969 13.929688 14.070312 13.332031 13.332031 13.332031 L 12 13.332031 C 11.265625 13.332031 10.667969 13.929688 10.667969 14.667969 C 10.667969 15.402344 11.265625 16 12 16 Z M 28 26.667969 L 26.667969 26.667969 L 26.667969 4 C 26.667969 3.265625 26.070312 2.667969 25.332031 2.667969 L 6.667969 2.667969 C 5.929688 2.667969 5.332031 3.265625 5.332031 4 L 5.332031 26.667969 L 4 26.667969 C 3.265625 26.667969 2.667969 27.265625 2.667969 28 C 2.667969 28.734375 3.265625 29.332031 4 29.332031 L 28 29.332031 C 28.734375 29.332031 29.332031 28.734375 29.332031 28 C 29.332031 27.265625 28.734375 26.667969 28 26.667969 Z M 17.332031 26.667969 L 14.667969 26.667969 L 14.667969 21.332031 L 17.332031 21.332031 Z M 24 26.667969 L 20 26.667969 L 20 20 C 20 19.265625 19.402344 18.667969 18.667969 18.667969 L 13.332031 18.667969 C 12.597656 18.667969 12 19.265625 12 20 L 12 26.667969 L 8 26.667969 L 8 5.332031 L 24 5.332031 Z M 24 26.667969 "/>
</g>
</svg>
