<?xml version="1.0" encoding="UTF-8"?>
<svg xmlns="http://www.w3.org/2000/svg" xmlns:xlink="http://www.w3.org/1999/xlink" width="32px" height="32px" viewBox="0 0 32 32" version="1.1">
<g id="surface1">
<path style=" stroke:none;fill-rule:nonzero;fill:rgb(39.607843%,38.823529%,100%);fill-opacity:1;" d="M 16 2.667969 C 10.402344 2.65625 5.394531 6.144531 3.460938 11.398438 C 1.53125 16.65625 3.085938 22.554688 7.359375 26.175781 C 11.628906 29.792969 17.707031 30.355469 22.574219 27.585938 L 22.734375 27.585938 C 28.011719 24.582031 30.59375 18.386719 29.007812 12.519531 C 27.425781 6.65625 22.074219 2.605469 16 2.667969 Z M 17.332031 5.425781 C 22.160156 6.039062 25.960938 9.839844 26.574219 14.667969 L 17.332031 14.667969 Z M 16 26.667969 C 10.398438 26.628906 5.777344 22.261719 5.425781 16.667969 C 5.074219 11.074219 9.113281 6.164062 14.667969 5.425781 L 14.667969 16 C 14.671875 16.160156 14.703125 16.316406 14.761719 16.464844 L 14.761719 16.667969 L 20.09375 25.828125 C 18.800781 26.378906 17.40625 26.667969 16 26.667969 Z M 22.441406 24.480469 L 18.308594 17.332031 L 26.574219 17.332031 C 26.210938 20.171875 24.722656 22.75 22.441406 24.480469 Z M 22.441406 24.480469 "/>
</g>
</svg>
