<?xml version="1.0" encoding="UTF-8"?>
<svg xmlns="http://www.w3.org/2000/svg" xmlns:xlink="http://www.w3.org/1999/xlink" width="24px" height="24px" viewBox="0 0 24 24" version="1.1">
<g id="surface1">
<path style=" stroke:none;fill-rule:nonzero;fill:rgb(39.607843%,38.823529%,100%);fill-opacity:1;" d="M 10 18 C 10.550781 18 11 17.550781 11 17 L 11 11 C 11 10.449219 10.550781 10 10 10 C 9.449219 10 9 10.449219 9 11 L 9 17 C 9 17.550781 9.449219 18 10 18 Z M 20 6 L 16 6 L 16 5 C 16 3.34375 14.65625 2 13 2 L 11 2 C 9.34375 2 8 3.34375 8 5 L 8 6 L 4 6 C 3.449219 6 3 6.449219 3 7 C 3 7.550781 3.449219 8 4 8 L 5 8 L 5 19 C 5 20.65625 6.34375 22 8 22 L 16 22 C 17.65625 22 19 20.65625 19 19 L 19 8 L 20 8 C 20.550781 8 21 7.550781 21 7 C 21 6.449219 20.550781 6 20 6 Z M 10 5 C 10 4.449219 10.449219 4 11 4 L 13 4 C 13.550781 4 14 4.449219 14 5 L 14 6 L 10 6 Z M 17 19 C 17 19.550781 16.550781 20 16 20 L 8 20 C 7.449219 20 7 19.550781 7 19 L 7 8 L 17 8 Z M 14 18 C 14.550781 18 15 17.550781 15 17 L 15 11 C 15 10.449219 14.550781 10 14 10 C 13.449219 10 13 10.449219 13 11 L 13 17 C 13 17.550781 13.449219 18 14 18 Z M 14 18 "/>
</g>
</svg>
