<?xml version="1.0" encoding="UTF-8"?>
<svg xmlns="http://www.w3.org/2000/svg" xmlns:xlink="http://www.w3.org/1999/xlink" width="36px" height="36px" viewBox="0 0 36 36" version="1.1">
<g id="surface1">
<path style=" stroke:none;fill-rule:nonzero;fill:rgb(39.607843%,38.823529%,100%);fill-opacity:1;" d="M 6 18 C 6 18.828125 6.671875 19.5 7.5 19.5 L 18.886719 19.5 L 15.433594 22.933594 C 15.152344 23.214844 14.992188 23.601562 14.992188 24 C 14.992188 24.398438 15.152344 24.785156 15.433594 25.066406 C 15.714844 25.347656 16.101562 25.507812 16.5 25.507812 C 16.898438 25.507812 17.285156 25.347656 17.566406 25.066406 L 23.566406 19.066406 C 23.703125 18.921875 23.808594 18.753906 23.878906 18.570312 C 24.03125 18.203125 24.03125 17.796875 23.878906 17.429688 C 23.808594 17.246094 23.703125 17.078125 23.566406 16.933594 L 17.566406 10.933594 C 16.976562 10.347656 16.023438 10.347656 15.433594 10.933594 C 14.847656 11.523438 14.847656 12.476562 15.433594 13.066406 L 18.886719 16.5 L 7.5 16.5 C 6.671875 16.5 6 17.171875 6 18 Z M 25.5 3 L 10.5 3 C 8.015625 3 6 5.015625 6 7.5 L 6 12 C 6 12.828125 6.671875 13.5 7.5 13.5 C 8.328125 13.5 9 12.828125 9 12 L 9 7.5 C 9 6.671875 9.671875 6 10.5 6 L 25.5 6 C 26.328125 6 27 6.671875 27 7.5 L 27 28.5 C 27 29.328125 26.328125 30 25.5 30 L 10.5 30 C 9.671875 30 9 29.328125 9 28.5 L 9 24 C 9 23.171875 8.328125 22.5 7.5 22.5 C 6.671875 22.5 6 23.171875 6 24 L 6 28.5 C 6 30.984375 8.015625 33 10.5 33 L 25.5 33 C 27.984375 33 30 30.984375 30 28.5 L 30 7.5 C 30 5.015625 27.984375 3 25.5 3 Z M 25.5 3 "/>
</g>
</svg>
