<?xml version="1.0" encoding="UTF-8"?>
<svg xmlns="http://www.w3.org/2000/svg" xmlns:xlink="http://www.w3.org/1999/xlink" width="24px" height="24px" viewBox="0 0 24 24" version="1.1">
<g id="surface1">
<path style=" stroke:none;fill-rule:nonzero;fill:rgb(39.607843%,38.823529%,100%);fill-opacity:1;" d="M 12 13 C 11.449219 13 11 13.449219 11 14 L 11 17 C 11 17.550781 11.449219 18 12 18 C 12.550781 18 13 17.550781 13 17 L 13 14 C 13 13.449219 12.550781 13 12 13 Z M 17 9 L 17 7 C 17 4.238281 14.761719 2 12 2 C 9.238281 2 7 4.238281 7 7 L 7 9 C 5.34375 9 4 10.34375 4 12 L 4 19 C 4 20.65625 5.34375 22 7 22 L 17 22 C 18.65625 22 20 20.65625 20 19 L 20 12 C 20 10.34375 18.65625 9 17 9 Z M 9 7 C 9 5.34375 10.34375 4 12 4 C 13.65625 4 15 5.34375 15 7 L 15 9 L 9 9 Z M 18 19 C 18 19.550781 17.550781 20 17 20 L 7 20 C 6.449219 20 6 19.550781 6 19 L 6 12 C 6 11.449219 6.449219 11 7 11 L 17 11 C 17.550781 11 18 11.449219 18 12 Z M 18 19 "/>
</g>
</svg>
