<?xml version="1.0" encoding="UTF-8"?>
<svg xmlns="http://www.w3.org/2000/svg" xmlns:xlink="http://www.w3.org/1999/xlink" width="32px" height="32px" viewBox="0 0 32 32" version="1.1">
<g id="surface1">
<path style=" stroke:none;fill-rule:nonzero;fill:rgb(57.254902%,58.823529%,61.568627%);fill-opacity:1;" d="M 19 31 L 19 3 L 21 3 L 21 1 L 27 1 L 27 3 L 29 3 L 29 31 Z M 19 31 "/>
<path style=" stroke:none;fill-rule:nonzero;fill:rgb(40%,67.45098%,84.313725%);fill-opacity:1;" d="M 19 5 L 21 5 L 21 31 L 19 31 Z M 19 5 "/>
<path style=" stroke:none;fill-rule:nonzero;fill:rgb(54.509804%,82.352941%,96.078431%);fill-opacity:1;" d="M 21 5 L 23 5 L 23 31 L 21 31 Z M 21 5 "/>
<path style=" stroke:none;fill-rule:nonzero;fill:rgb(40%,67.45098%,84.313725%);fill-opacity:1;" d="M 23 5 L 25 5 L 25 31 L 23 31 Z M 23 5 "/>
<path style=" stroke:none;fill-rule:nonzero;fill:rgb(54.509804%,82.352941%,96.078431%);fill-opacity:1;" d="M 25 5 L 27 5 L 27 31 L 25 31 Z M 25 5 "/>
<path style=" stroke:none;fill-rule:nonzero;fill:rgb(40%,67.45098%,84.313725%);fill-opacity:1;" d="M 27 5 L 29 5 L 29 31 L 27 31 Z M 27 5 "/>
<path style=" stroke:none;fill-rule:nonzero;fill:rgb(65.882353%,67.058824%,69.411765%);fill-opacity:1;" d="M 2 31 L 2 11.5 L 4 11.5 C 4 9.566406 5.566406 8 7.5 8 C 9.433594 8 11 9.566406 11 11.5 L 13 11.5 L 13 31 Z M 2 31 "/>
<path style=" stroke:none;fill-rule:nonzero;fill:rgb(65.882353%,67.058824%,69.411765%);fill-opacity:1;" d="M 15 12 L 23 12 L 23 31 L 15 31 Z M 15 12 "/>
<path style=" stroke:none;fill-rule:nonzero;fill:rgb(57.254902%,58.823529%,61.568627%);fill-opacity:1;" d="M 8.5 21.5 L 17.5 21.5 L 17.5 31 L 8.5 31 Z M 8.5 21.5 "/>
<path style=" stroke:none;fill-rule:nonzero;fill:rgb(79.607843%,80.392157%,81.568627%);fill-opacity:1;" d="M 20.5 23 L 30 23 L 30 31 L 20.5 31 Z M 20.5 23 "/>
<path style=" stroke:none;fill-rule:nonzero;fill:rgb(54.509804%,82.352941%,96.078431%);fill-opacity:1;" d="M 4.5 17.5 L 6.5 17.5 L 6.5 19.5 L 4.5 19.5 Z M 4.5 17.5 "/>
<path style=" stroke:none;fill-rule:nonzero;fill:rgb(54.509804%,82.352941%,96.078431%);fill-opacity:1;" d="M 8.5 17.5 L 10.5 17.5 L 10.5 19.5 L 8.5 19.5 Z M 8.5 17.5 "/>
<path style=" stroke:none;fill-rule:nonzero;fill:rgb(54.509804%,82.352941%,96.078431%);fill-opacity:1;" d="M 4.5 21.5 L 6.5 21.5 L 6.5 23.5 L 4.5 23.5 Z M 4.5 21.5 "/>
<path style=" stroke:none;fill-rule:nonzero;fill:rgb(54.509804%,82.352941%,96.078431%);fill-opacity:1;" d="M 4.5 25.5 L 6.5 25.5 L 6.5 27.5 L 4.5 27.5 Z M 4.5 25.5 "/>
<path style=" stroke:none;fill-rule:nonzero;fill:rgb(100%,100%,100%);fill-opacity:1;" d="M 10.5 23 L 11.5 23 L 11.5 25 L 10.5 25 Z M 10.5 23 "/>
<path style=" stroke:none;fill-rule:nonzero;fill:rgb(100%,100%,100%);fill-opacity:1;" d="M 12.5 23 L 13.5 23 L 13.5 25 L 12.5 25 Z M 12.5 23 "/>
<path style=" stroke:none;fill-rule:nonzero;fill:rgb(100%,100%,100%);fill-opacity:1;" d="M 14.5 23 L 15.5 23 L 15.5 25 L 14.5 25 Z M 14.5 23 "/>
<path style=" stroke:none;fill-rule:nonzero;fill:rgb(100%,100%,100%);fill-opacity:1;" d="M 10.5 26 L 11.5 26 L 11.5 28 L 10.5 28 Z M 10.5 26 "/>
<path style=" stroke:none;fill-rule:nonzero;fill:rgb(100%,100%,100%);fill-opacity:1;" d="M 12.5 26 L 13.5 26 L 13.5 28 L 12.5 28 Z M 12.5 26 "/>
<path style=" stroke:none;fill-rule:nonzero;fill:rgb(100%,100%,100%);fill-opacity:1;" d="M 14.5 26 L 15.5 26 L 15.5 28 L 14.5 28 Z M 14.5 26 "/>
<path style=" stroke:none;fill-rule:nonzero;fill:rgb(78.039216%,88.627451%,98.823529%);fill-opacity:1;" d="M 5.25 13.5 C 5.941406 13.5 6.5 14.058594 6.5 14.75 C 6.5 15.441406 7.058594 16 7.75 16 L 9.25 16 C 9.941406 16 10.5 16.558594 10.5 17.25 C 10.5 17.941406 11.058594 18.5 11.75 18.5 L 13 18.5 L 13 11.5 L 11 11.5 C 11 9.566406 9.433594 8 7.5 8 C 5.566406 8 4 9.566406 4 11.5 L 4 12.25 C 4 12.941406 4.558594 13.5 5.25 13.5 Z M 5.25 13.5 "/>
<path style=" stroke:none;fill-rule:nonzero;fill:rgb(63.137255%,80.392157%,98.431373%);fill-opacity:1;" d="M 14.5 7.5 C 14.5 8.050781 14.050781 8.5 13.5 8.5 C 12.949219 8.5 12.5 8.050781 12.5 7.5 C 12.5 6.949219 12.949219 6.5 13.5 6.5 C 14.050781 6.5 14.5 6.949219 14.5 7.5 Z M 14.5 7.5 "/>
<path style=" stroke:none;fill-rule:nonzero;fill:rgb(63.137255%,80.392157%,98.431373%);fill-opacity:1;" d="M 4.5 3.5 C 4.5 4.050781 4.050781 4.5 3.5 4.5 C 2.949219 4.5 2.5 4.050781 2.5 3.5 C 2.5 2.949219 2.949219 2.5 3.5 2.5 C 4.050781 2.5 4.5 2.949219 4.5 3.5 Z M 4.5 3.5 "/>
<path style=" stroke:none;fill-rule:nonzero;fill:rgb(0%,0%,0%);fill-opacity:1;" d="M 30.5 30.5 L 30.5 23 C 30.5 22.722656 30.277344 22.5 30 22.5 L 29.5 22.5 L 29.5 3 C 29.5 2.722656 29.277344 2.5 29 2.5 L 27.5 2.5 L 27.5 1 C 27.5 0.722656 27.277344 0.5 27 0.5 L 21 0.5 C 20.722656 0.5 20.5 0.722656 20.5 1 L 20.5 2.5 L 19 2.5 C 18.722656 2.5 18.5 2.722656 18.5 3 L 18.5 11.5 L 15 11.5 C 14.722656 11.5 14.5 11.722656 14.5 12 L 14.5 21 L 13.5 21 L 13.5 11.5 C 13.5 11.222656 13.277344 11 13 11 L 11.46875 11 C 11.238281 9.1875 9.8125 7.761719 8 7.535156 L 8 5.5 L 7 5.5 L 7 7.535156 C 5.1875 7.761719 3.761719 9.1875 3.53125 11 L 2 11 C 1.722656 11 1.5 11.222656 1.5 11.5 L 1.5 30.5 L 0.5 30.5 L 0.5 31.5 L 31.5 31.5 L 31.5 30.5 Z M 22.5 5.5 L 22.5 11.5 L 21.5 11.5 L 21.5 5.5 Z M 23.5 12 L 23.5 5.5 L 24.5 5.5 L 24.5 22.5 L 23.5 22.5 Z M 25.5 22.5 L 25.5 5.5 L 26.5 5.5 L 26.5 22.5 Z M 29.5 23.5 L 29.5 30.5 L 21 30.5 L 21 23.5 Z M 27.5 22.5 L 27.5 5.5 L 28.5 5.5 L 28.5 22.5 Z M 21 3.5 C 21.277344 3.5 21.5 3.277344 21.5 3 L 21.5 1.5 L 26.5 1.5 L 26.5 3 C 26.5 3.277344 26.722656 3.5 27 3.5 L 28.5 3.5 L 28.5 4.5 L 19.5 4.5 L 19.5 3.5 Z M 19.5 5.5 L 20.5 5.5 L 20.5 11.5 L 19.5 11.5 Z M 15.5 12.5 L 22.5 12.5 L 22.5 22.5 L 20.5 22.5 C 20.222656 22.5 20 22.722656 20 23 L 20 30.5 L 18 30.5 L 18 21.5 C 18 21.222656 17.777344 21 17.5 21 L 15.5 21 Z M 17 30.5 L 9 30.5 L 9 22 L 17 22 Z M 7.5 8.5 C 9.15625 8.5 10.5 9.84375 10.5 11.5 C 10.5 11.777344 10.722656 12 11 12 L 12.5 12 L 12.5 18 L 11.75 18 C 11.335938 18 11 17.664062 11 17.25 C 11 16.285156 10.214844 15.5 9.25 15.5 L 7.75 15.5 C 7.335938 15.5 7 15.164062 7 14.75 C 7 13.785156 6.214844 13 5.25 13 C 4.835938 13 4.5 12.664062 4.5 12.25 L 4.5 11.5 C 4.5 9.84375 5.84375 8.5 7.5 8.5 Z M 2.5 12 L 3.5 12 L 3.5 12.25 C 3.5 13.214844 4.285156 14 5.25 14 C 5.664062 14 6 14.335938 6 14.75 C 6 15.714844 6.785156 16.5 7.75 16.5 L 9.25 16.5 C 9.566406 16.503906 9.847656 16.703125 9.953125 17 L 8.5 17 C 8.222656 17 8 17.222656 8 17.5 L 8 19.5 C 8 19.777344 8.222656 20 8.5 20 L 10.5 20 C 10.777344 20 11 19.777344 11 19.5 L 11 18.824219 C 11.234375 18.9375 11.488281 19 11.75 19 L 12.5 19 L 12.5 21 L 8.5 21 C 8.222656 21 8 21.222656 8 21.5 L 8 30.5 L 2.5 30.5 Z M 10 18 L 10 19 L 9 19 L 9 18 Z M 10 18 "/>
<path style=" stroke:none;fill-rule:nonzero;fill:rgb(0%,0%,0%);fill-opacity:1;" d="M 6.5 17 L 4.5 17 C 4.222656 17 4 17.222656 4 17.5 L 4 19.5 C 4 19.777344 4.222656 20 4.5 20 L 6.5 20 C 6.777344 20 7 19.777344 7 19.5 L 7 17.5 C 7 17.222656 6.777344 17 6.5 17 Z M 6 19 L 5 19 L 5 18 L 6 18 Z M 6 19 "/>
<path style=" stroke:none;fill-rule:nonzero;fill:rgb(0%,0%,0%);fill-opacity:1;" d="M 6.5 21 L 4.5 21 C 4.222656 21 4 21.222656 4 21.5 L 4 23.5 C 4 23.777344 4.222656 24 4.5 24 L 6.5 24 C 6.777344 24 7 23.777344 7 23.5 L 7 21.5 C 7 21.222656 6.777344 21 6.5 21 Z M 6 23 L 5 23 L 5 22 L 6 22 Z M 6 23 "/>
<path style=" stroke:none;fill-rule:nonzero;fill:rgb(0%,0%,0%);fill-opacity:1;" d="M 6.5 25 L 4.5 25 C 4.222656 25 4 25.222656 4 25.5 L 4 27.5 C 4 27.777344 4.222656 28 4.5 28 L 6.5 28 C 6.777344 28 7 27.777344 7 27.5 L 7 25.5 C 7 25.222656 6.777344 25 6.5 25 Z M 6 27 L 5 27 L 5 26 L 6 26 Z M 6 27 "/>
<path style=" stroke:none;fill-rule:nonzero;fill:rgb(0%,0%,0%);fill-opacity:1;" d="M 10.5 23 L 11.5 23 L 11.5 25 L 10.5 25 Z M 10.5 23 "/>
<path style=" stroke:none;fill-rule:nonzero;fill:rgb(0%,0%,0%);fill-opacity:1;" d="M 12.5 23 L 13.5 23 L 13.5 25 L 12.5 25 Z M 12.5 23 "/>
<path style=" stroke:none;fill-rule:nonzero;fill:rgb(0%,0%,0%);fill-opacity:1;" d="M 14.5 23 L 15.5 23 L 15.5 25 L 14.5 25 Z M 14.5 23 "/>
<path style=" stroke:none;fill-rule:nonzero;fill:rgb(0%,0%,0%);fill-opacity:1;" d="M 10.5 26 L 11.5 26 L 11.5 28 L 10.5 28 Z M 10.5 26 "/>
<path style=" stroke:none;fill-rule:nonzero;fill:rgb(0%,0%,0%);fill-opacity:1;" d="M 12.5 26 L 13.5 26 L 13.5 28 L 12.5 28 Z M 12.5 26 "/>
<path style=" stroke:none;fill-rule:nonzero;fill:rgb(0%,0%,0%);fill-opacity:1;" d="M 14.5 26 L 15.5 26 L 15.5 28 L 14.5 28 Z M 14.5 26 "/>
<path style=" stroke:none;fill-rule:nonzero;fill:rgb(0%,0%,0%);fill-opacity:1;" d="M 22 24.5 L 28.5 24.5 L 28.5 25.5 L 22 25.5 Z M 22 24.5 "/>
<path style=" stroke:none;fill-rule:nonzero;fill:rgb(0%,0%,0%);fill-opacity:1;" d="M 22 26.5 L 28.5 26.5 L 28.5 27.5 L 22 27.5 Z M 22 26.5 "/>
<path style=" stroke:none;fill-rule:nonzero;fill:rgb(0%,0%,0%);fill-opacity:1;" d="M 22 28.5 L 28.5 28.5 L 28.5 29.5 L 22 29.5 Z M 22 28.5 "/>
<path style=" stroke:none;fill-rule:nonzero;fill:rgb(0%,0%,0%);fill-opacity:1;" d="M 16.5 13.5 L 21.5 13.5 L 21.5 14.5 L 16.5 14.5 Z M 16.5 13.5 "/>
<path style=" stroke:none;fill-rule:nonzero;fill:rgb(0%,0%,0%);fill-opacity:1;" d="M 16.5 15.5 L 21.5 15.5 L 21.5 16.5 L 16.5 16.5 Z M 16.5 15.5 "/>
<path style=" stroke:none;fill-rule:nonzero;fill:rgb(0%,0%,0%);fill-opacity:1;" d="M 16.5 17.5 L 21.5 17.5 L 21.5 18.5 L 16.5 18.5 Z M 16.5 17.5 "/>
<path style=" stroke:none;fill-rule:nonzero;fill:rgb(0%,0%,0%);fill-opacity:1;" d="M 16.5 19.5 L 21.5 19.5 L 21.5 20.5 L 16.5 20.5 Z M 16.5 19.5 "/>
<path style=" stroke:none;fill-rule:nonzero;fill:rgb(0%,0%,0%);fill-opacity:1;" d="M 13.5 9 C 14.328125 9 15 8.328125 15 7.5 C 15 6.671875 14.328125 6 13.5 6 C 12.671875 6 12 6.671875 12 7.5 C 12 8.328125 12.671875 9 13.5 9 Z M 13.5 7 C 13.777344 7 14 7.222656 14 7.5 C 14 7.777344 13.777344 8 13.5 8 C 13.222656 8 13 7.777344 13 7.5 C 13 7.222656 13.222656 7 13.5 7 Z M 13.5 7 "/>
<path style=" stroke:none;fill-rule:nonzero;fill:rgb(0%,0%,0%);fill-opacity:1;" d="M 3.5 5 C 4.328125 5 5 4.328125 5 3.5 C 5 2.671875 4.328125 2 3.5 2 C 2.671875 2 2 2.671875 2 3.5 C 2 4.328125 2.671875 5 3.5 5 Z M 3.5 3 C 3.777344 3 4 3.222656 4 3.5 C 4 3.777344 3.777344 4 3.5 4 C 3.222656 4 3 3.777344 3 3.5 C 3 3.222656 3.222656 3 3.5 3 Z M 3.5 3 "/>
</g>
</svg>
