<?xml version="1.0" encoding="UTF-8"?>
<svg xmlns="http://www.w3.org/2000/svg" xmlns:xlink="http://www.w3.org/1999/xlink" width="24px" height="24px" viewBox="0 0 24 24" version="1.1">
<g id="surface1">
<path style=" stroke:none;fill-rule:nonzero;fill:rgb(39.607843%,38.823529%,100%);fill-opacity:1;" d="M 19.910156 15.511719 L 15.378906 15.511719 C 14.828125 15.511719 14.378906 15.957031 14.378906 16.511719 C 14.378906 17.0625 14.828125 17.511719 15.378906 17.511719 L 17.78125 17.511719 C 15.523438 19.867188 12.058594 20.617188 9.03125 19.40625 C 6 18.195312 4.007812 15.265625 4 12 C 4 11.449219 3.550781 11 3 11 C 2.449219 11 2 11.449219 2 12 C 2.011719 15.992188 4.394531 19.59375 8.0625 21.164062 C 11.730469 22.738281 15.984375 21.976562 18.878906 19.230469 L 18.878906 21 C 18.878906 21.550781 19.328125 22 19.878906 22 C 20.433594 22 20.878906 21.550781 20.878906 21 L 20.878906 16.5 C 20.875 15.964844 20.445312 15.527344 19.910156 15.511719 Z M 15 12 C 15 10.34375 13.65625 9 12 9 C 10.34375 9 9 10.34375 9 12 C 9 13.65625 10.34375 15 12 15 C 13.65625 15 15 13.65625 15 12 Z M 11 12 C 11 11.449219 11.449219 11 12 11 C 12.550781 11 13 11.449219 13 12 C 13 12.550781 12.550781 13 12 13 C 11.449219 13 11 12.550781 11 12 Z M 12 2 C 9.4375 2.007812 6.972656 3 5.121094 4.769531 L 5.121094 3 C 5.121094 2.449219 4.671875 2 4.121094 2 C 3.566406 2 3.121094 2.449219 3.121094 3 L 3.121094 7.5 C 3.121094 8.050781 3.566406 8.5 4.121094 8.5 L 8.621094 8.5 C 9.171875 8.5 9.621094 8.050781 9.621094 7.5 C 9.621094 6.949219 9.171875 6.5 8.621094 6.5 L 6.21875 6.5 C 8.476562 4.144531 11.9375 3.390625 14.964844 4.601562 C 17.996094 5.808594 19.988281 8.738281 20 12 C 20 12.550781 20.449219 13 21 13 C 21.550781 13 22 12.550781 22 12 C 22 6.476562 17.523438 2 12 2 Z M 12 2 "/>
</g>
</svg>
