<?xml version="1.0" encoding="UTF-8"?>
<svg xmlns="http://www.w3.org/2000/svg" xmlns:xlink="http://www.w3.org/1999/xlink" width="32px" height="32px" viewBox="0 0 32 32" version="1.1">
<g id="surface1">
<path style=" stroke:none;fill-rule:nonzero;fill:rgb(39.607843%,38.823529%,100%);fill-opacity:1;" d="M 12 16 L 9.332031 16 C 8.597656 16 8 16.597656 8 17.332031 C 8 18.070312 8.597656 18.667969 9.332031 18.667969 L 12 18.667969 C 12.738281 18.667969 13.332031 18.070312 13.332031 17.332031 C 13.332031 16.597656 12.738281 16 12 16 Z M 10.667969 13.332031 L 16 13.332031 C 16.738281 13.332031 17.332031 12.738281 17.332031 12 C 17.332031 11.261719 16.738281 10.667969 16 10.667969 L 10.667969 10.667969 C 9.929688 10.667969 9.332031 11.261719 9.332031 12 C 9.332031 12.738281 9.929688 13.332031 10.667969 13.332031 Z M 12 21.332031 L 9.332031 21.332031 C 8.597656 21.332031 8 21.929688 8 22.667969 C 8 23.402344 8.597656 24 9.332031 24 L 12 24 C 12.738281 24 13.332031 23.402344 13.332031 22.667969 C 13.332031 21.929688 12.738281 21.332031 12 21.332031 Z M 28 16 L 24 16 L 24 4 C 24 3.523438 23.746094 3.078125 23.332031 2.839844 C 22.921875 2.601562 22.414062 2.601562 22 2.839844 L 18 5.132812 L 14 2.839844 C 13.585938 2.601562 13.078125 2.601562 12.667969 2.839844 L 8.667969 5.132812 L 4.667969 2.839844 C 4.253906 2.601562 3.746094 2.601562 3.332031 2.839844 C 2.917969 3.078125 2.664062 3.523438 2.667969 4 L 2.667969 25.332031 C 2.667969 27.542969 4.457031 29.332031 6.667969 29.332031 L 25.332031 29.332031 C 27.542969 29.332031 29.332031 27.542969 29.332031 25.332031 L 29.332031 17.332031 C 29.332031 16.597656 28.738281 16 28 16 Z M 6.667969 26.667969 C 5.929688 26.667969 5.332031 26.070312 5.332031 25.332031 L 5.332031 6.308594 L 8 7.828125 C 8.417969 8.042969 8.914062 8.042969 9.332031 7.828125 L 13.332031 5.535156 L 17.332031 7.828125 C 17.75 8.042969 18.25 8.042969 18.667969 7.828125 L 21.332031 6.308594 L 21.332031 25.332031 C 21.335938 25.789062 21.417969 26.238281 21.574219 26.667969 Z M 26.667969 25.332031 C 26.667969 26.070312 26.070312 26.667969 25.332031 26.667969 C 24.597656 26.667969 24 26.070312 24 25.332031 L 24 18.667969 L 26.667969 18.667969 Z M 18.078125 21.558594 C 18.003906 21.507812 17.925781 21.46875 17.839844 21.441406 C 17.761719 21.398438 17.675781 21.371094 17.585938 21.359375 C 17.152344 21.273438 16.703125 21.40625 16.386719 21.71875 C 16.144531 21.976562 16.003906 22.3125 16 22.667969 C 15.996094 22.839844 16.03125 23.011719 16.09375 23.171875 C 16.164062 23.335938 16.265625 23.484375 16.386719 23.613281 C 16.515625 23.730469 16.664062 23.824219 16.828125 23.894531 C 17.148438 24.035156 17.515625 24.035156 17.839844 23.894531 C 18 23.824219 18.152344 23.730469 18.28125 23.613281 C 18.53125 23.363281 18.667969 23.019531 18.667969 22.667969 C 18.660156 22.3125 18.523438 21.976562 18.28125 21.71875 C 18.214844 21.664062 18.148438 21.609375 18.078125 21.558594 Z M 18.265625 16.386719 C 17.949219 16.078125 17.503906 15.949219 17.070312 16.035156 C 16.636719 16.125 16.277344 16.417969 16.105469 16.828125 C 15.9375 17.238281 15.984375 17.703125 16.230469 18.074219 C 16.476562 18.441406 16.890625 18.664062 17.332031 18.667969 C 18.070312 18.667969 18.667969 18.070312 18.667969 17.332031 C 18.664062 17.160156 18.628906 16.988281 18.558594 16.828125 C 18.496094 16.660156 18.394531 16.511719 18.265625 16.386719 Z M 18.265625 16.386719 "/>
</g>
</svg>
