<?xml version="1.0" encoding="UTF-8"?>
<svg xmlns="http://www.w3.org/2000/svg" xmlns:xlink="http://www.w3.org/1999/xlink" width="32px" height="32px" viewBox="0 0 32 32" version="1.1">
<g id="surface1">
<path style=" stroke:none;fill-rule:nonzero;fill:rgb(39.607843%,38.823529%,100%);fill-opacity:1;" d="M 16.785156 17.332031 L 13.71875 20.386719 C 13.46875 20.636719 13.324219 20.976562 13.324219 21.332031 C 13.324219 21.6875 13.46875 22.03125 13.71875 22.28125 C 13.96875 22.53125 14.3125 22.675781 14.667969 22.675781 C 15.023438 22.675781 15.363281 22.53125 15.613281 22.28125 L 20.945312 16.945312 C 21.066406 16.820312 21.164062 16.671875 21.226562 16.507812 C 21.359375 16.183594 21.359375 15.816406 21.226562 15.492188 C 21.164062 15.328125 21.066406 15.179688 20.945312 15.054688 L 15.613281 9.71875 C 15.089844 9.195312 14.242188 9.195312 13.71875 9.71875 C 13.195312 10.242188 13.195312 11.089844 13.71875 11.613281 L 16.785156 14.667969 L 4 14.667969 C 3.261719 14.667969 2.667969 15.261719 2.667969 16 C 2.667969 16.738281 3.261719 17.332031 4 17.332031 Z M 16 2.667969 C 10.917969 2.644531 6.261719 5.515625 4 10.066406 C 3.667969 10.730469 3.9375 11.535156 4.601562 11.867188 C 5.261719 12.199219 6.070312 11.929688 6.398438 11.265625 C 8.734375 6.554688 14.152344 4.246094 19.164062 5.828125 C 24.179688 7.40625 27.292969 12.402344 26.503906 17.601562 C 25.714844 22.800781 21.257812 26.644531 16 26.667969 C 11.941406 26.683594 8.234375 24.378906 6.453125 20.734375 C 6.121094 20.070312 5.316406 19.800781 4.652344 20.132812 C 3.992188 20.464844 3.722656 21.269531 4.054688 21.933594 C 6.980469 27.820312 13.761719 30.699219 20.027344 28.707031 C 26.292969 26.71875 30.175781 20.460938 29.171875 13.960938 C 28.164062 7.464844 22.574219 2.667969 16 2.667969 Z M 16 2.667969 "/>
</g>
</svg>
