<?xml version="1.0" encoding="UTF-8"?>
<svg xmlns="http://www.w3.org/2000/svg" xmlns:xlink="http://www.w3.org/1999/xlink" width="50px" height="50px" viewBox="0 0 50 50" version="1.1">
<g id="surface1">
<path style="fill:none;stroke-width:2;stroke-linecap:round;stroke-linejoin:miter;stroke:rgb(0%,0%,0%);stroke-opacity:1;stroke-miterlimit:10;" d="M 49 25 C 49 38.253906 38.253906 49 25 49 C 11.746094 49 1 38.253906 1 25 C 1 11.746094 11.746094 1 25 1 C 38.253906 1 49 11.746094 49 25 Z M 49 25 "/>
<path style="fill:none;stroke-width:2;stroke-linecap:round;stroke-linejoin:miter;stroke:rgb(0%,0%,0%);stroke-opacity:1;stroke-miterlimit:10;" d="M 29.933594 35.527344 C 29.785156 33.914062 29.84375 32.789062 29.84375 31.316406 C 30.574219 30.933594 31.882812 28.492188 32.101562 26.429688 C 32.675781 26.382812 33.582031 25.824219 33.847656 23.613281 C 33.988281 22.425781 33.421875 21.757812 33.074219 21.546875 C 34.007812 18.738281 35.949219 10.046875 29.488281 9.148438 C 28.820312 7.980469 27.117188 7.390625 24.90625 7.390625 C 16.050781 7.554688 14.984375 14.078125 16.925781 21.546875 C 16.578125 21.757812 16.011719 22.425781 16.152344 23.613281 C 16.421875 25.824219 17.324219 26.382812 17.898438 26.429688 C 18.117188 28.492188 19.476562 30.933594 20.210938 31.316406 C 20.210938 32.789062 20.265625 33.914062 20.117188 35.527344 C 18.859375 38.917969 12.382812 39.183594 8.644531 42.453125 C 12.550781 46.386719 18.882812 49.199219 25.5625 49.199219 C 32.242188 49.199219 40.09375 43.925781 41.402344 42.484375 C 37.6875 39.1875 31.195312 38.929688 29.933594 35.527344 Z M 29.933594 35.527344 "/>
</g>
</svg>
