<?xml version="1.0" encoding="UTF-8"?>
<svg xmlns="http://www.w3.org/2000/svg" xmlns:xlink="http://www.w3.org/1999/xlink" width="50px" height="50px" viewBox="0 0 50 50" version="1.1">
<g id="surface1">
<path style=" stroke:none;fill-rule:nonzero;fill:rgb(0%,72.156863%,91.372549%);fill-opacity:1;" d="M 8.125 36.570312 C 9.101562 35.703125 11.457031 33.867188 18.75 30.539062 C 18.796875 30.515625 18.847656 30.488281 18.898438 30.46875 L 20.527344 29.734375 C 20.554688 29.726562 20.585938 29.707031 20.617188 29.699219 L 20.617188 31.679688 L 20.984375 34.890625 C 22.753906 34.382812 25.011719 33.847656 25.011719 33.847656 L 28.953125 35.203125 L 29.367188 31.671875 L 29.367188 29.699219 C 29.414062 29.71875 29.453125 29.734375 29.5 29.757812 L 30.261719 30.097656 C 30.75 30.3125 31.210938 30.527344 31.660156 30.734375 C 32.597656 31.164062 33.445312 31.5625 34.21875 31.945312 C 39.257812 34.414062 41.023438 35.828125 41.867188 36.570312 C 42.195312 36.867188 42.507812 37.335938 42.78125 37.921875 C 44.851562 34.65625 46.054688 30.789062 46.054688 26.640625 C 46.0625 15 36.632812 5.566406 25 5.566406 C 13.367188 5.566406 3.933594 15 3.933594 26.640625 C 3.933594 30.789062 5.136719 34.65625 7.207031 37.921875 C 7.492188 37.335938 7.792969 36.875 8.125 36.570312 Z M 8.125 36.570312 "/>
<path style=" stroke:none;fill-rule:nonzero;fill:rgb(86.27451%,77.254902%,63.137255%);fill-opacity:1;" d="M 20.625 21.6875 L 20.625 31.6875 C 21.828125 33.117188 23.417969 33.847656 25 33.867188 L 25 17.636719 C 22.8125 17.636719 20.625 18.984375 20.625 21.6875 Z M 20.625 21.6875 "/>
<path style=" stroke:none;fill-rule:nonzero;fill:rgb(92.941176%,85.098039%,70.588235%);fill-opacity:1;" d="M 25 17.636719 L 25 33.859375 C 26.59375 33.867188 28.171875 33.15625 29.375 31.679688 L 29.375 21.6875 C 29.375 18.984375 27.1875 17.636719 25 17.636719 Z M 25 17.636719 "/>
<path style=" stroke:none;fill-rule:evenodd;fill:rgb(73.72549%,62.352941%,50.980392%);fill-opacity:1;" d="M 29.375 21.503906 L 29.375 27.898438 C 27.714844 29.054688 26.125 29.695312 25 29.695312 C 23.875 29.695312 22.273438 29.050781 20.625 27.898438 L 20.625 21.503906 C 20.625 16.347656 29.375 16.347656 29.375 21.503906 "/>
<path style=" stroke:none;fill-rule:nonzero;fill:rgb(100%,100%,100%);fill-opacity:1;" d="M 19.960938 21.40625 C 19.960938 21.40625 24.21875 22.839844 29.570312 21.40625 C 29.570312 21.40625 25.585938 26.230469 19.960938 21.40625 "/>
<path style=" stroke:none;fill-rule:nonzero;fill:rgb(89.803922%,56.862745%,47.843137%);fill-opacity:1;" d="M 19.960938 21.40625 C 19.960938 21.40625 24.40625 22.949219 29.570312 21.40625 C 26.484375 21.25 27.128906 21.09375 19.960938 21.40625 "/>
<path style=" stroke:none;fill-rule:nonzero;fill:rgb(89.803922%,56.862745%,47.843137%);fill-opacity:1;" d="M 19.960938 21.40625 C 19.960938 21.40625 24.707031 26.007812 29.570312 21.40625 C 29.570312 21.40625 28.527344 24.734375 25.011719 24.746094 C 21.492188 24.765625 19.960938 21.40625 19.960938 21.40625 "/>
<path style=" stroke:none;fill-rule:nonzero;fill:rgb(86.27451%,77.254902%,63.137255%);fill-opacity:1;" d="M 25 3.738281 C 16.074219 3.738281 14.519531 10.292969 14.890625 15.753906 C 14.5 15.421875 14.082031 15.273438 13.710938 15.402344 C 12.9375 15.65625 12.667969 16.945312 13.105469 18.273438 C 13.546875 19.609375 14.523438 20.476562 15.292969 20.226562 C 15.390625 20.195312 15.488281 20.136719 15.566406 20.070312 C 15.929688 21.542969 16.339844 22.597656 16.542969 22.902344 C 17.597656 24.464844 22.617188 28.59375 24.992188 28.59375 Z M 25 3.738281 "/>
<path style=" stroke:none;fill-rule:nonzero;fill:rgb(92.941176%,85.098039%,70.588235%);fill-opacity:1;" d="M 36.257812 15.398438 C 35.898438 15.28125 35.488281 15.410156 35.117188 15.722656 C 35.476562 10.265625 33.914062 3.738281 25 3.738281 L 25 28.601562 C 27.375 28.601562 32.390625 24.472656 33.445312 22.910156 C 33.652344 22.605469 34.054688 21.5625 34.414062 20.105469 C 34.492188 20.164062 34.570312 20.203125 34.65625 20.234375 C 35.429688 20.488281 36.414062 19.609375 36.84375 18.28125 C 37.296875 16.945312 37.03125 15.65625 36.257812 15.398438 Z M 36.257812 15.398438 "/>
<path style=" stroke:none;fill-rule:evenodd;fill:rgb(25.882353%,18.431373%,9.411765%);fill-opacity:1;" d="M 18.28125 9.679688 C 17.429688 14.335938 15.292969 13.898438 15.457031 19.367188 C 14.773438 15.109375 13.75 9.433594 16.640625 5.703125 C 18.953125 2.714844 26.621094 0.585938 31.582031 4.160156 C 37.0625 5.332031 35.351562 16.492188 34.617188 18.601562 C 34.101562 15.1875 32.960938 13.757812 31.503906 9.746094 C 29.539062 11.164062 20.8125 11.476562 18.28125 9.679688 "/>
<path style=" stroke:none;fill-rule:nonzero;fill:rgb(20.392157%,13.333333%,7.843137%);fill-opacity:1;" d="M 20.789062 15.488281 C 21.359375 15.488281 21.828125 16.015625 21.828125 16.660156 C 21.828125 17.304688 21.367188 17.832031 20.789062 17.832031 C 20.226562 17.832031 19.757812 17.304688 19.757812 16.660156 C 19.757812 16.007812 20.214844 15.488281 20.789062 15.488281 "/>
<path style=" stroke:none;fill-rule:nonzero;fill:rgb(20.392157%,13.333333%,7.843137%);fill-opacity:1;" d="M 29.171875 15.488281 C 29.734375 15.488281 30.203125 16.015625 30.203125 16.660156 C 30.203125 17.304688 29.746094 17.832031 29.171875 17.832031 C 28.601562 17.832031 28.132812 17.304688 28.132812 16.660156 C 28.144531 16.007812 28.601562 15.488281 29.171875 15.488281 "/>
<path style=" stroke:none;fill-rule:nonzero;fill:rgb(100%,100%,100%);fill-opacity:1;" d="M 22.851562 22.898438 C 23.222656 23.710938 24.03125 24.277344 24.980469 24.277344 C 25.929688 24.277344 26.75 23.710938 27.109375 22.898438 Z M 22.851562 22.898438 "/>
<path style=" stroke:none;fill-rule:nonzero;fill:rgb(24.313725%,49.411765%,73.72549%);fill-opacity:1;" d="M 18.898438 30.46875 L 20.527344 29.734375 C 19.96875 29.992188 19.421875 30.234375 18.898438 30.46875 Z M 18.898438 30.46875 "/>
<path style=" stroke:none;fill-rule:nonzero;fill:rgb(24.313725%,49.411765%,73.72549%);fill-opacity:1;" d="M 29.511719 29.765625 L 30.273438 30.109375 C 30.03125 29.992188 29.773438 29.882812 29.511719 29.765625 Z M 29.511719 29.765625 "/>
<path style=" stroke:none;fill-rule:nonzero;fill:rgb(53.72549%,73.72549%,89.803922%);fill-opacity:1;" d="M 18.75 30.539062 C 18.796875 30.515625 18.847656 30.488281 18.898438 30.46875 Z M 18.75 30.539062 "/>
<path style=" stroke:none;fill-rule:nonzero;fill:rgb(53.72549%,73.72549%,89.803922%);fill-opacity:1;" d="M 20.625 29.699219 L 20.539062 29.734375 C 20.566406 29.726562 20.59375 29.707031 20.625 29.699219 Z M 20.625 29.699219 "/>
<path style=" stroke:none;fill-rule:nonzero;fill:rgb(53.72549%,73.72549%,89.803922%);fill-opacity:1;" d="M 31.660156 30.722656 L 30.273438 30.109375 C 30.761719 30.320312 31.21875 30.539062 31.671875 30.742188 Z M 31.660156 30.722656 "/>
<path style=" stroke:none;fill-rule:nonzero;fill:rgb(53.72549%,73.72549%,89.803922%);fill-opacity:1;" d="M 29.375 29.707031 C 29.421875 29.726562 29.460938 29.746094 29.511719 29.765625 Z M 29.375 29.707031 "/>
<path style=" stroke:none;fill-rule:nonzero;fill:rgb(24.313725%,49.411765%,73.72549%);fill-opacity:1;" d="M 13.390625 44.21875 C 13.503906 43.300781 13.585938 42.734375 13.585938 42.734375 C 13.585938 42.734375 13.585938 43.339844 13.585938 44.34375 C 15.117188 45.34375 16.796875 46.132812 18.574219 46.710938 L 15.652344 40.78125 L 19.09375 38.484375 L 14.890625 36.523438 L 18.75 30.539062 C 11.453125 33.867188 9.101562 35.703125 8.125 36.570312 C 7.792969 36.867188 7.480469 37.335938 7.207031 37.921875 C 8.796875 40.429688 10.90625 42.578125 13.390625 44.21875 Z M 13.390625 44.21875 "/>
<path style=" stroke:none;fill-rule:nonzero;fill:rgb(24.313725%,49.411765%,73.72549%);fill-opacity:1;" d="M 41.875 36.570312 C 41.046875 35.828125 39.265625 34.414062 34.226562 31.945312 C 33.457031 31.5625 32.609375 31.164062 31.671875 30.734375 L 35.085938 36.523438 L 30.890625 38.488281 L 34.328125 40.78125 L 31.40625 46.71875 C 33.195312 46.152344 34.875 45.351562 36.414062 44.355469 C 36.414062 43.351562 36.414062 42.746094 36.414062 42.746094 C 36.414062 42.746094 36.496094 43.300781 36.609375 44.230469 C 39.09375 42.589844 41.203125 40.441406 42.792969 37.929688 C 42.507812 37.335938 42.207031 36.875 41.875 36.570312 Z M 41.875 36.570312 "/>
<path style=" stroke:none;fill-rule:nonzero;fill:rgb(90.196078%,90.196078%,89.803922%);fill-opacity:1;" d="M 22.460938 47.546875 L 22.46875 47.65625 C 22.558594 47.65625 22.636719 47.664062 22.726562 47.664062 L 22.734375 47.585938 C 22.648438 47.578125 22.558594 47.570312 22.460938 47.546875 Z M 22.460938 47.546875 "/>
<path style=" stroke:none;fill-rule:nonzero;fill:rgb(90.196078%,90.196078%,89.803922%);fill-opacity:1;" d="M 22.460938 47.546875 C 22.546875 47.558594 22.648438 47.570312 22.734375 47.578125 L 24.171875 37.519531 L 23 35.898438 L 25.011719 33.847656 C 25.011719 33.847656 22.753906 34.382812 20.988281 34.890625 Z M 22.460938 47.546875 "/>
<path style=" stroke:none;fill-rule:nonzero;fill:rgb(90.196078%,90.196078%,89.803922%);fill-opacity:1;" d="M 27.265625 47.585938 L 27.273438 47.664062 C 27.355469 47.664062 27.433594 47.65625 27.507812 47.65625 L 27.519531 47.558594 C 27.429688 47.570312 27.34375 47.578125 27.265625 47.585938 Z M 27.265625 47.585938 "/>
<path style=" stroke:none;fill-rule:nonzero;fill:rgb(90.196078%,90.196078%,89.803922%);fill-opacity:1;" d="M 25.019531 33.859375 L 26.960938 35.90625 L 25.808594 37.53125 L 27.246094 47.585938 C 27.332031 47.578125 27.421875 47.570312 27.507812 47.558594 L 28.953125 35.214844 Z M 25.019531 33.859375 "/>
<path style=" stroke:none;fill-rule:nonzero;fill:rgb(53.72549%,73.72549%,89.803922%);fill-opacity:1;" d="M 20.996094 34.902344 L 20.625 31.6875 L 20.625 29.707031 C 20.59375 29.71875 20.566406 29.734375 20.539062 29.746094 L 18.90625 30.476562 C 18.859375 30.496094 18.808594 30.527344 18.757812 30.546875 L 14.890625 36.523438 L 19.09375 38.484375 L 15.65625 40.78125 L 18.574219 46.710938 C 19.394531 46.972656 20.234375 47.1875 21.09375 47.34375 C 21.542969 47.429688 22.003906 47.5 22.460938 47.558594 Z M 20.996094 34.902344 "/>
<path style=" stroke:none;fill-rule:nonzero;fill:rgb(53.72549%,73.72549%,89.803922%);fill-opacity:1;" d="M 35.085938 36.523438 L 31.671875 30.734375 C 31.21875 30.527344 30.761719 30.3125 30.273438 30.097656 L 29.511719 29.757812 C 29.460938 29.734375 29.421875 29.71875 29.375 29.695312 L 29.375 31.667969 L 28.964844 35.203125 L 27.519531 47.558594 C 28.222656 47.46875 28.917969 47.351562 29.601562 47.207031 C 30.214844 47.070312 30.8125 46.902344 31.40625 46.71875 L 34.328125 40.78125 L 30.890625 38.484375 Z M 35.085938 36.523438 "/>
<path style=" stroke:none;fill-rule:nonzero;fill:rgb(10.588235%,45.882353%,73.72549%);fill-opacity:1;" d="M 25.820312 37.53125 L 26.972656 35.90625 L 25.03125 33.859375 L 23.015625 35.90625 L 24.1875 37.53125 L 22.753906 47.585938 C 23.496094 47.664062 24.25 47.703125 25.011719 47.703125 C 25.773438 47.703125 26.523438 47.664062 27.265625 47.585938 Z M 25.820312 37.53125 "/>
<path style=" stroke:none;fill-rule:nonzero;fill:rgb(19.215686%,30.588235%,40.392157%);fill-opacity:1;" d="M 13.390625 44.21875 C 13.457031 44.257812 13.515625 44.304688 13.585938 44.34375 C 13.585938 43.339844 13.585938 42.734375 13.585938 42.734375 C 13.585938 42.734375 13.507812 43.289062 13.390625 44.21875 Z M 13.390625 44.21875 "/>
<path style=" stroke:none;fill-rule:nonzero;fill:rgb(19.215686%,30.588235%,40.392157%);fill-opacity:1;" d="M 36.414062 44.34375 C 36.484375 44.308594 36.542969 44.257812 36.609375 44.21875 C 36.492188 43.300781 36.414062 42.734375 36.414062 42.734375 C 36.414062 42.734375 36.425781 43.339844 36.414062 44.34375 Z M 36.414062 44.34375 "/>
<path style=" stroke:none;fill-rule:evenodd;fill:rgb(100%,100%,100%);fill-opacity:1;" d="M 20.625 28.378906 L 20.234375 29.863281 L 21.308594 37.617188 L 25.019531 33.859375 Z M 20.625 28.378906 "/>
<path style=" stroke:none;fill-rule:evenodd;fill:rgb(100%,100%,100%);fill-opacity:1;" d="M 29.375 28.378906 L 29.675781 29.84375 L 28.671875 37.695312 L 25.019531 33.859375 Z M 29.375 28.378906 "/>
</g>
</svg>
