<?xml version="1.0" encoding="UTF-8"?>
<svg xmlns="http://www.w3.org/2000/svg" xmlns:xlink="http://www.w3.org/1999/xlink" width="24px" height="24px" viewBox="0 0 24 24" version="1.1">
<g id="surface1">
<path style=" stroke:none;fill-rule:nonzero;fill:rgb(39.607843%,38.823529%,100%);fill-opacity:1;" d="M 12 2 C 6.476562 2 2 6.476562 2 12 C 2 17.523438 6.476562 22 12 22 C 17.523438 22 22 17.523438 22 12 C 21.992188 6.480469 17.519531 2.007812 12 2 Z M 12 20 C 7.582031 20 4 16.417969 4 12 C 4 7.582031 7.582031 4 12 4 C 16.417969 4 20 7.582031 20 12 C 19.996094 16.417969 16.417969 19.996094 12 20 Z M 12 11.5 C 11.449219 11.5 11 11.949219 11 12.5 L 11 15.5 C 11 16.050781 11.449219 16.5 12 16.5 C 12.550781 16.5 13 16.050781 13 15.5 L 13 12.5 C 13 11.949219 12.550781 11.5 12 11.5 Z M 12 7.5 C 11.308594 7.5 10.75 8.058594 10.75 8.75 C 10.75 9.441406 11.308594 10 12 10 C 12.691406 10 13.25 9.441406 13.25 8.75 C 13.25 8.058594 12.691406 7.5 12 7.5 Z M 12 7.5 "/>
</g>
</svg>
