<?xml version="1.0" encoding="UTF-8"?>
<svg xmlns="http://www.w3.org/2000/svg" xmlns:xlink="http://www.w3.org/1999/xlink" width="24px" height="24px" viewBox="0 0 24 24" version="1.1">
<g id="surface1">
<path style=" stroke:none;fill-rule:nonzero;fill:rgb(39.607843%,38.823529%,100%);fill-opacity:1;" d="M 5 18 L 9.238281 18 C 9.503906 18 9.761719 17.898438 9.949219 17.710938 L 16.871094 10.78125 L 19.710938 8 C 19.898438 7.8125 20.003906 7.554688 20.003906 7.289062 C 20.003906 7.023438 19.898438 6.769531 19.710938 6.578125 L 15.46875 2.289062 C 15.28125 2.101562 15.027344 1.996094 14.761719 1.996094 C 14.492188 1.996094 14.238281 2.101562 14.050781 2.289062 L 11.230469 5.121094 L 4.289062 12.050781 C 4.101562 12.238281 4 12.496094 4 12.761719 L 4 17 C 4 17.550781 4.449219 18 5 18 Z M 14.761719 4.410156 L 17.589844 7.238281 L 16.171875 8.660156 L 13.339844 5.828125 Z M 6 13.171875 L 11.929688 7.238281 L 14.761719 10.070312 L 8.828125 16 L 6 16 Z M 21 20 L 3 20 C 2.449219 20 2 20.449219 2 21 C 2 21.550781 2.449219 22 3 22 L 21 22 C 21.550781 22 22 21.550781 22 21 C 22 20.449219 21.550781 20 21 20 Z M 21 20 "/>
</g>
</svg>
