<?xml version="1.0" encoding="UTF-8"?>
<svg xmlns="http://www.w3.org/2000/svg" xmlns:xlink="http://www.w3.org/1999/xlink" width="32px" height="32px" viewBox="0 0 32 32" version="1.1">
<g id="surface1">
<path style=" stroke:none;fill-rule:nonzero;fill:rgb(39.607843%,38.823529%,100%);fill-opacity:1;" d="M 28.878906 13.667969 L 16.878906 3 C 16.375 2.558594 15.625 2.558594 15.121094 3 L 3.121094 13.667969 C 2.703125 14.035156 2.558594 14.625 2.761719 15.144531 C 2.957031 15.660156 3.453125 16 4 16 L 5.332031 16 L 5.332031 28 C 5.332031 28.734375 5.929688 29.332031 6.667969 29.332031 L 25.332031 29.332031 C 26.070312 29.332031 26.667969 28.734375 26.667969 28 L 26.667969 16 L 28 16 C 28.546875 16 29.042969 15.660156 29.238281 15.144531 C 29.441406 14.625 29.296875 14.035156 28.878906 13.667969 Z M 17.332031 26.667969 L 14.667969 26.667969 L 14.667969 22.667969 C 14.667969 21.929688 15.265625 21.332031 16 21.332031 C 16.734375 21.332031 17.332031 21.929688 17.332031 22.667969 Z M 24 26.667969 L 20 26.667969 L 20 22.667969 C 20 20.457031 18.207031 18.667969 16 18.667969 C 13.792969 18.667969 12 20.457031 12 22.667969 L 12 26.667969 L 8 26.667969 L 8 16 L 24 16 Z M 7.507812 13.332031 L 16 5.789062 L 24.492188 13.332031 Z M 7.507812 13.332031 "/>
</g>
</svg>
