<?xml version="1.0" encoding="UTF-8"?>
<svg xmlns="http://www.w3.org/2000/svg" xmlns:xlink="http://www.w3.org/1999/xlink" width="50px" height="50px" viewBox="0 0 50 50" version="1.1">
<g id="surface1">
<path style=" stroke:none;fill-rule:nonzero;fill:rgb(0%,0%,0%);fill-opacity:1;" d="M 34.375 10.9375 C 34.375 16.976562 29.476562 21.875 23.4375 21.875 C 17.398438 21.875 12.5 16.976562 12.5 10.9375 C 12.5 4.898438 17.398438 0 23.4375 0 C 29.476562 0 34.375 4.898438 34.375 10.9375 Z M 34.375 10.9375 "/>
<path style=" stroke:none;fill-rule:nonzero;fill:rgb(0%,0%,0%);fill-opacity:1;" d="M 34.375 25 L 33.007812 25 L 26.390625 40.117188 L 24.363281 31.882812 L 28.125 28.125 L 23.4375 25 L 18.75 28.125 L 22.5 31.875 L 20.453125 40.054688 L 13.867188 25 L 12.5 25 C 7.320312 25 3.125 29.195312 3.125 34.375 L 3.125 42.1875 C 3.125 44.765625 5.234375 46.875 7.8125 46.875 L 39.0625 46.875 C 41.640625 46.875 43.75 44.765625 43.75 42.1875 L 43.75 34.375 C 43.75 29.195312 39.554688 25 34.375 25 Z M 34.375 25 "/>
</g>
</svg>
