<?xml version="1.0" encoding="UTF-8"?>
<svg xmlns="http://www.w3.org/2000/svg" xmlns:xlink="http://www.w3.org/1999/xlink" width="32px" height="32px" viewBox="0 0 32 32" version="1.1">
<g id="surface1">
<path style=" stroke:none;fill-rule:nonzero;fill:rgb(39.607843%,38.823529%,100%);fill-opacity:1;" d="M 26.90625 13.585938 C 25.949219 13.414062 24.976562 13.328125 24 13.332031 C 23.441406 13.332031 22.894531 13.332031 22.347656 13.441406 C 21.667969 12.53125 20.796875 11.78125 19.800781 11.238281 C 20.65625 10.304688 21.132812 9.082031 21.132812 7.8125 C 21.132812 4.972656 18.828125 2.667969 15.988281 2.667969 C 13.144531 2.667969 10.839844 4.972656 10.839844 7.8125 C 10.839844 9.082031 11.316406 10.304688 12.171875 11.238281 C 11.183594 11.785156 10.316406 12.527344 9.625 13.425781 C 9.105469 13.332031 8.558594 13.332031 8 13.332031 C 7.023438 13.335938 6.050781 13.429688 5.09375 13.613281 C 4.453125 13.730469 3.988281 14.292969 4 14.945312 L 4 25.945312 C 4 26.34375 4.175781 26.71875 4.480469 26.972656 C 4.78125 27.230469 5.183594 27.335938 5.574219 27.265625 C 6.371094 27.09375 7.183594 26.996094 8 26.972656 C 10.582031 26.96875 13.109375 27.726562 15.265625 29.148438 L 15.441406 29.214844 C 15.617188 29.289062 15.808594 29.332031 16 29.332031 C 16.128906 29.332031 16.253906 29.308594 16.375 29.265625 L 16.464844 29.265625 L 16.640625 29.199219 C 18.816406 27.742188 21.378906 26.96875 24 26.972656 C 24.816406 26.976562 25.628906 27.058594 26.425781 27.214844 C 26.816406 27.28125 27.21875 27.175781 27.519531 26.921875 C 27.824219 26.667969 28 26.289062 28 25.894531 L 28 14.894531 C 27.996094 14.25 27.539062 13.703125 26.90625 13.585938 Z M 16 5.332031 C 17.296875 5.429688 18.296875 6.507812 18.296875 7.808594 C 18.296875 9.105469 17.296875 10.183594 16 10.28125 C 14.703125 10.183594 13.703125 9.105469 13.703125 7.808594 C 13.703125 6.507812 14.703125 5.429688 16 5.332031 Z M 14.667969 25.773438 C 12.578125 24.808594 10.300781 24.308594 8 24.308594 C 7.558594 24.308594 7.121094 24.308594 6.667969 24.375 L 6.667969 16 C 7.785156 15.875 8.914062 15.898438 10.027344 16.066406 L 10.171875 16.066406 C 11.761719 16.359375 13.285156 16.9375 14.667969 17.773438 Z M 16 15.464844 C 15.40625 15.125 14.792969 14.820312 14.160156 14.558594 L 14.078125 14.558594 C 13.640625 14.386719 13.199219 14.214844 12.746094 14.078125 C 13.671875 13.34375 14.816406 12.933594 16 12.921875 C 17.179688 12.925781 18.324219 13.324219 19.253906 14.054688 C 18.121094 14.40625 17.03125 14.878906 16 15.464844 Z M 25.332031 24.375 C 22.59375 24.097656 19.832031 24.558594 17.332031 25.707031 L 17.332031 17.707031 C 18.71875 16.890625 20.242188 16.339844 21.828125 16.078125 L 22.09375 16.078125 C 23.164062 15.914062 24.253906 15.886719 25.332031 16 Z M 25.332031 24.375 "/>
</g>
</svg>
