<?xml version="1.0" encoding="UTF-8"?>
<svg xmlns="http://www.w3.org/2000/svg" xmlns:xlink="http://www.w3.org/1999/xlink" width="32px" height="32px" viewBox="0 0 32 32" version="1.1">
<g id="surface1">
<path style=" stroke:none;fill-rule:nonzero;fill:rgb(39.607843%,38.823529%,100%);fill-opacity:1;" d="M 27.332031 20.132812 C 26.675781 19.804688 25.875 20.074219 25.546875 20.734375 C 23.210938 25.449219 17.78125 27.757812 12.765625 26.167969 C 7.746094 24.578125 4.640625 19.566406 5.449219 14.363281 C 6.253906 9.160156 10.734375 5.328125 16 5.332031 C 20.058594 5.316406 23.765625 7.621094 25.546875 11.265625 C 25.878906 11.929688 26.683594 12.199219 27.347656 11.867188 C 28.007812 11.535156 28.277344 10.730469 27.945312 10.066406 C 25.191406 4.523438 18.984375 1.605469 12.957031 3.019531 C 6.933594 4.433594 2.671875 9.808594 2.671875 16 C 2.671875 22.191406 6.933594 27.566406 12.957031 28.980469 C 18.984375 30.394531 25.191406 27.476562 27.945312 21.933594 C 28.105469 21.613281 28.132812 21.242188 28.015625 20.90625 C 27.902344 20.566406 27.65625 20.289062 27.332031 20.132812 Z M 28 14.667969 L 15.214844 14.667969 L 18.28125 11.613281 C 18.804688 11.089844 18.804688 10.242188 18.28125 9.71875 C 17.757812 9.195312 16.910156 9.195312 16.386719 9.71875 L 11.054688 15.054688 C 10.933594 15.179688 10.835938 15.328125 10.773438 15.492188 C 10.640625 15.816406 10.640625 16.183594 10.773438 16.507812 C 10.835938 16.671875 10.933594 16.820312 11.054688 16.945312 L 16.386719 22.28125 C 16.636719 22.53125 16.976562 22.675781 17.332031 22.675781 C 17.6875 22.675781 18.03125 22.53125 18.28125 22.28125 C 18.53125 22.03125 18.675781 21.6875 18.675781 21.332031 C 18.675781 20.976562 18.53125 20.636719 18.28125 20.386719 L 15.214844 17.332031 L 28 17.332031 C 28.738281 17.332031 29.332031 16.738281 29.332031 16 C 29.332031 15.261719 28.738281 14.667969 28 14.667969 Z M 28 14.667969 "/>
</g>
</svg>
