<?xml version="1.0" encoding="UTF-8"?>
<svg xmlns="http://www.w3.org/2000/svg" xmlns:xlink="http://www.w3.org/1999/xlink" width="50px" height="50px" viewBox="0 0 50 50" version="1.1">
<g id="surface1">
<path style=" stroke:none;fill-rule:nonzero;fill:rgb(39.607843%,38.823529%,100%);fill-opacity:1;" d="M 25 4.167969 C 16.742188 4.183594 9.277344 9.070312 5.960938 16.632812 C 2.644531 24.195312 4.105469 33 9.6875 39.082031 C 13.632812 43.359375 19.183594 45.789062 25 45.789062 C 30.816406 45.789062 36.367188 43.359375 40.3125 39.082031 C 45.894531 33 47.355469 24.195312 44.039062 16.632812 C 40.722656 9.070312 33.257812 4.183594 25 4.167969 Z M 25 41.667969 C 20.683594 41.660156 16.539062 39.980469 13.4375 36.980469 C 15.363281 32.289062 19.929688 29.230469 25 29.230469 C 30.070312 29.230469 34.636719 32.289062 36.5625 36.980469 C 33.460938 39.980469 29.316406 41.660156 25 41.667969 Z M 20.832031 20.832031 C 20.832031 18.53125 22.699219 16.667969 25 16.667969 C 27.300781 16.667969 29.167969 18.53125 29.167969 20.832031 C 29.167969 23.132812 27.300781 25 25 25 C 22.699219 25 20.832031 23.132812 20.832031 20.832031 Z M 39.394531 33.332031 C 37.535156 30.148438 34.667969 27.671875 31.25 26.292969 C 34.203125 22.941406 33.992188 17.855469 30.769531 14.765625 C 27.542969 11.671875 22.457031 11.671875 19.230469 14.765625 C 16.007812 17.855469 15.796875 22.941406 18.75 26.292969 C 15.332031 27.671875 12.464844 30.148438 10.605469 33.332031 C 9.121094 30.804688 8.335938 27.929688 8.332031 25 C 8.332031 15.796875 15.796875 8.332031 25 8.332031 C 34.203125 8.332031 41.667969 15.796875 41.667969 25 C 41.664062 27.929688 40.878906 30.804688 39.394531 33.332031 Z M 39.394531 33.332031 "/>
</g>
</svg>
