<?xml version="1.0" encoding="UTF-8"?>
<svg xmlns="http://www.w3.org/2000/svg" xmlns:xlink="http://www.w3.org/1999/xlink" width="24px" height="24px" viewBox="0 0 24 24" version="1.1">
<g id="surface1">
<path style=" stroke:none;fill-rule:nonzero;fill:rgb(39.607843%,38.823529%,100%);fill-opacity:1;" d="M 15.710938 12.710938 C 17.71875 11.128906 18.507812 8.449219 17.667969 6.03125 C 16.832031 3.613281 14.558594 1.996094 12 1.996094 C 9.441406 1.996094 7.167969 3.613281 6.332031 6.03125 C 5.492188 8.449219 6.28125 11.128906 8.289062 12.710938 C 4.867188 14.082031 2.476562 17.226562 2.070312 20.890625 C 2.007812 21.441406 2.40625 21.9375 2.960938 22 C 3.511719 22.0625 4.007812 21.664062 4.070312 21.109375 C 4.523438 17.0625 7.949219 14.003906 12.019531 14.003906 C 16.09375 14.003906 19.515625 17.0625 19.96875 21.109375 C 20.027344 21.617188 20.457031 22.003906 20.96875 22 L 21.078125 22 C 21.625 21.9375 22.019531 21.445312 21.960938 20.898438 C 21.550781 17.222656 19.148438 14.074219 15.710938 12.710938 Z M 12 12 C 9.789062 12 8 10.210938 8 8 C 8 5.789062 9.789062 4 12 4 C 14.210938 4 16 5.789062 16 8 C 16 10.210938 14.210938 12 12 12 Z M 12 12 "/>
</g>
</svg>
